# WaveFront *.obj file (generated by Autodesk ATF)

mtllib e4499196-3df2-4e64-81cf-1121a208af48.mtl

g Body1

v 17.000000 17.000000 10.000000
v 3.000000 17.000000 10.000000
v 3.000000 17.000000 0.000000
v 17.000000 17.000000 0.000000
v 3.000000 16.000000 10.000000
v 3.000000 16.000000 0.000000
v 2.200000 16.000000 10.000000
v 2.200000 16.000000 0.000000
v 2.200000 12.900000 10.000000
v 2.200000 12.900000 0.000000
v 3.000000 12.900000 10.000000
v 3.000000 12.900000 0.000000
v 3.000000 7.100000 10.000000
v 3.000000 7.100000 0.000000
v 2.200000 7.100000 10.000000
v 2.200000 7.100000 0.000000
v 2.200000 4.000000 10.000000
v 2.200000 4.000000 0.000000
v 3.000000 4.000000 10.000000
v 3.000000 4.000000 0.000000
v 3.000000 3.000000 10.000000
v 3.000000 3.000000 0.000000
v 17.000000 3.000000 10.000000
v 17.000000 3.000000 0.000000
v 17.000000 4.000000 10.000000
v 17.000000 4.000000 0.000000
v 17.800000 4.000000 10.000000
v 17.800000 4.000000 0.000000
v 17.800000 7.100000 10.000000
v 17.800000 7.100000 0.000000
v 17.000000 7.100000 10.000000
v 17.000000 7.100000 0.000000
v 17.000000 12.900000 10.000000
v 17.000000 12.900000 0.000000
v 17.800000 12.900000 10.000000
v 17.800000 12.900000 0.000000
v 17.800000 16.000000 10.000000
v 17.800000 16.000000 0.000000
v 17.000000 16.000000 10.000000
v 17.000000 16.000000 0.000000
v 20.000000 20.000000 0.000000
v 0.000000 20.000000 0.000000
v 0.000000 20.000000 10.000000
v 20.000000 20.000000 10.000000
v 20.000000 0.000000 0.000000
v 20.000000 0.000000 10.000000
v 0.000000 0.000000 0.000000
v 0.000000 0.000000 10.000000
vt -1.400000 0.000000 0.000000
vt -0.000000 0.000000 0.000000
vt -1.400000 1.000000 0.000000
vt -0.000000 1.000000 0.000000
vt -0.100000 0.000000 0.000000
vt -0.000000 0.000000 0.000000
vt -0.100000 1.000000 0.000000
vt -0.000000 1.000000 0.000000
vt -0.080000 0.000000 0.000000
vt -0.000000 0.000000 0.000000
vt -0.080000 1.000000 0.000000
vt 0.000000 1.000000 0.000000
vt -0.310000 0.000000 0.000000
vt -0.000000 0.000000 0.000000
vt -0.310000 1.000000 0.000000
vt -0.000000 1.000000 0.000000
vt -0.080000 0.000000 0.000000
vt -0.000000 0.000000 0.000000
vt -0.080000 1.000000 0.000000
vt -0.000000 1.000000 0.000000
vt -0.580000 0.000000 0.000000
vt -0.000000 0.000000 0.000000
vt -0.580000 1.000000 0.000000
vt -0.000000 1.000000 0.000000
vt -0.080000 0.000000 0.000000
vt -0.000000 0.000000 0.000000
vt -0.080000 1.000000 0.000000
vt 0.000000 1.000000 0.000000
vt -0.310000 0.000000 0.000000
vt -0.000000 0.000000 0.000000
vt -0.310000 1.000000 0.000000
vt 0.000000 1.000000 0.000000
vt -0.080000 0.000000 0.000000
vt 0.000000 0.000000 0.000000
vt -0.080000 1.000000 0.000000
vt -0.000000 1.000000 0.000000
vt -0.100000 0.000000 0.000000
vt -0.000000 0.000000 0.000000
vt -0.100000 1.000000 0.000000
vt -0.000000 1.000000 0.000000
vt -1.400000 0.000000 0.000000
vt -0.000000 0.000000 0.000000
vt -1.400000 1.000000 0.000000
vt -0.000000 1.000000 0.000000
vt -0.100000 0.000000 0.000000
vt 0.000000 0.000000 0.000000
vt -0.100000 1.000000 0.000000
vt -0.000000 1.000000 0.000000
vt -0.080000 0.000000 0.000000
vt -0.000000 0.000000 0.000000
vt -0.080000 1.000000 0.000000
vt 0.000000 1.000000 0.000000
vt -0.310000 0.000000 0.000000
vt -0.000000 0.000000 0.000000
vt -0.310000 1.000000 0.000000
vt -0.000000 1.000000 0.000000
vt -0.080000 0.000000 0.000000
vt -0.000000 0.000000 0.000000
vt -0.080000 1.000000 0.000000
vt -0.000000 1.000000 0.000000
vt -0.580000 0.000000 0.000000
vt -0.000000 0.000000 0.000000
vt -0.580000 1.000000 0.000000
vt -0.000000 1.000000 0.000000
vt -0.080000 0.000000 0.000000
vt -0.000000 0.000000 0.000000
vt -0.080000 1.000000 0.000000
vt -0.000000 1.000000 0.000000
vt -0.310000 0.000000 0.000000
vt -0.000000 0.000000 0.000000
vt -0.310000 1.000000 0.000000
vt -0.000000 1.000000 0.000000
vt -0.080000 0.000000 0.000000
vt -0.000000 0.000000 0.000000
vt -0.080000 1.000000 0.000000
vt -0.000000 1.000000 0.000000
vt -0.100000 0.000000 0.000000
vt 0.000000 0.000000 0.000000
vt -0.100000 1.000000 0.000000
vt -0.000000 1.000000 0.000000
vt 0.000000 0.000000 0.000000
vt 2.000000 0.000000 0.000000
vt 0.000000 1.000000 0.000000
vt 2.000000 1.000000 0.000000
vt 0.000000 0.000000 0.000000
vt 2.000000 0.000000 0.000000
vt 0.000000 1.000000 0.000000
vt 2.000000 1.000000 0.000000
vt 0.000000 0.000000 0.000000
vt 2.000000 0.000000 0.000000
vt 0.000000 1.000000 0.000000
vt 2.000000 1.000000 0.000000
vt 0.000000 0.000000 0.000000
vt 2.000000 0.000000 0.000000
vt 0.000000 1.000000 0.000000
vt 2.000000 1.000000 0.000000
vt 0.700000 0.700000 0.000000
vt 1.000000 1.000000 0.000000
vt -0.700000 0.700000 0.000000
vt -1.000000 1.000000 0.000000
vt -0.780000 0.600000 0.000000
vt -0.780000 0.290000 0.000000
vt -1.000000 -1.000000 0.000000
vt -0.780000 -0.290000 0.000000
vt -0.780000 -0.600000 0.000000
vt -0.700000 -0.700000 0.000000
vt -0.700000 -0.600000 0.000000
vt 0.700000 0.600000 0.000000
vt 0.780000 0.600000 0.000000
vt 0.780000 0.290000 0.000000
vt 1.000000 -1.000000 0.000000
vt 0.780000 -0.290000 0.000000
vt 0.780000 -0.600000 0.000000
vt 0.700000 0.290000 0.000000
vt 0.700000 -0.290000 0.000000
vt 0.700000 -0.600000 0.000000
vt 0.700000 -0.700000 0.000000
vt -0.700000 -0.290000 0.000000
vt -0.700000 0.290000 0.000000
vt -0.700000 0.600000 0.000000
vt 0.700000 0.700000 0.000000
vt -1.000000 1.000000 0.000000
vt -0.700000 0.700000 0.000000
vt -0.780000 0.600000 0.000000
vt -0.700000 0.600000 0.000000
vt 0.700000 0.600000 0.000000
vt 0.780000 0.600000 0.000000
vt 1.000000 1.000000 0.000000
vt 0.780000 0.290000 0.000000
vt 1.000000 -1.000000 0.000000
vt 0.780000 -0.290000 0.000000
vt 0.780000 -0.600000 0.000000
vt 0.700000 0.290000 0.000000
vt 0.700000 -0.290000 0.000000
vt 0.700000 -0.600000 0.000000
vt 0.700000 -0.700000 0.000000
vt -1.000000 -1.000000 0.000000
vt -0.700000 -0.700000 0.000000
vt -0.780000 -0.600000 0.000000
vt -0.700000 -0.600000 0.000000
vt -0.780000 -0.290000 0.000000
vt -0.780000 0.290000 0.000000
vt -0.700000 -0.290000 0.000000
vt -0.700000 0.290000 0.000000
vn 0.000000 -0.100000 0.000000
vn 0.000000 -0.100000 0.000000
vn 0.000000 -0.100000 0.000000
vn 0.000000 -0.100000 0.000000
vn 0.100000 0.000000 0.000000
vn 0.100000 0.000000 0.000000
vn 0.100000 0.000000 0.000000
vn 0.100000 0.000000 0.000000
vn 0.000000 -0.100000 0.000000
vn 0.000000 -0.100000 0.000000
vn 0.000000 -0.100000 0.000000
vn 0.000000 -0.100000 0.000000
vn 0.100000 0.000000 0.000000
vn 0.100000 0.000000 0.000000
vn 0.100000 0.000000 0.000000
vn 0.100000 0.000000 0.000000
vn 0.000000 0.100000 0.000000
vn 0.000000 0.100000 0.000000
vn 0.000000 0.100000 0.000000
vn 0.000000 0.100000 0.000000
vn 0.100000 0.000000 0.000000
vn 0.100000 0.000000 0.000000
vn 0.100000 0.000000 0.000000
vn 0.100000 0.000000 0.000000
vn 0.000000 -0.100000 0.000000
vn 0.000000 -0.100000 0.000000
vn 0.000000 -0.100000 0.000000
vn 0.000000 -0.100000 0.000000
vn 0.100000 0.000000 0.000000
vn 0.100000 0.000000 0.000000
vn 0.100000 0.000000 0.000000
vn 0.100000 0.000000 0.000000
vn -0.000000 0.100000 -0.000000
vn -0.000000 0.100000 -0.000000
vn -0.000000 0.100000 -0.000000
vn -0.000000 0.100000 -0.000000
vn 0.100000 0.000000 0.000000
vn 0.100000 0.000000 0.000000
vn 0.100000 0.000000 0.000000
vn 0.100000 0.000000 0.000000
vn 0.000000 0.100000 0.000000
vn 0.000000 0.100000 0.000000
vn 0.000000 0.100000 0.000000
vn 0.000000 0.100000 0.000000
vn -0.100000 0.000000 0.000000
vn -0.100000 0.000000 0.000000
vn -0.100000 0.000000 0.000000
vn -0.100000 0.000000 0.000000
vn 0.000000 0.100000 0.000000
vn 0.000000 0.100000 0.000000
vn 0.000000 0.100000 0.000000
vn 0.000000 0.100000 0.000000
vn -0.100000 0.000000 0.000000
vn -0.100000 0.000000 0.000000
vn -0.100000 0.000000 0.000000
vn -0.100000 0.000000 0.000000
vn 0.000000 -0.100000 0.000000
vn 0.000000 -0.100000 0.000000
vn 0.000000 -0.100000 0.000000
vn 0.000000 -0.100000 0.000000
vn -0.100000 0.000000 0.000000
vn -0.100000 0.000000 0.000000
vn -0.100000 0.000000 0.000000
vn -0.100000 0.000000 0.000000
vn 0.000000 0.100000 0.000000
vn 0.000000 0.100000 0.000000
vn 0.000000 0.100000 0.000000
vn 0.000000 0.100000 0.000000
vn -0.100000 0.000000 0.000000
vn -0.100000 0.000000 0.000000
vn -0.100000 0.000000 0.000000
vn -0.100000 0.000000 0.000000
vn 0.000000 -0.100000 0.000000
vn 0.000000 -0.100000 0.000000
vn 0.000000 -0.100000 0.000000
vn 0.000000 -0.100000 0.000000
vn -0.100000 0.000000 -0.000000
vn -0.100000 0.000000 -0.000000
vn -0.100000 0.000000 -0.000000
vn -0.100000 0.000000 -0.000000
vn 0.000000 0.100000 0.000000
vn 0.000000 0.100000 0.000000
vn 0.000000 0.100000 0.000000
vn 0.000000 0.100000 0.000000
vn 0.100000 0.000000 0.000000
vn 0.100000 0.000000 0.000000
vn 0.100000 0.000000 0.000000
vn 0.100000 0.000000 0.000000
vn 0.000000 -0.100000 0.000000
vn 0.000000 -0.100000 0.000000
vn 0.000000 -0.100000 0.000000
vn 0.000000 -0.100000 0.000000
vn -0.100000 0.000000 0.000000
vn -0.100000 0.000000 0.000000
vn -0.100000 0.000000 0.000000
vn -0.100000 0.000000 0.000000
vn 0.000000 0.000000 0.100000
vn 0.000000 0.000000 0.100000
vn 0.000000 0.000000 0.100000
vn 0.000000 0.000000 0.100000
vn 0.000000 0.000000 0.100000
vn 0.000000 0.000000 0.100000
vn 0.000000 0.000000 0.100000
vn 0.000000 0.000000 0.100000
vn 0.000000 0.000000 0.100000
vn 0.000000 0.000000 0.100000
vn 0.000000 0.000000 0.100000
vn 0.000000 0.000000 0.100000
vn 0.000000 0.000000 0.100000
vn 0.000000 0.000000 0.100000
vn 0.000000 0.000000 0.100000
vn 0.000000 0.000000 0.100000
vn 0.000000 0.000000 0.100000
vn 0.000000 0.000000 0.100000
vn 0.000000 0.000000 0.100000
vn 0.000000 0.000000 0.100000
vn 0.000000 0.000000 0.100000
vn 0.000000 0.000000 0.100000
vn 0.000000 0.000000 0.100000
vn 0.000000 0.000000 0.100000
vn 0.000000 0.000000 -0.100000
vn 0.000000 0.000000 -0.100000
vn 0.000000 0.000000 -0.100000
vn 0.000000 0.000000 -0.100000
vn 0.000000 0.000000 -0.100000
vn 0.000000 0.000000 -0.100000
vn 0.000000 0.000000 -0.100000
vn 0.000000 0.000000 -0.100000
vn 0.000000 0.000000 -0.100000
vn 0.000000 0.000000 -0.100000
vn 0.000000 0.000000 -0.100000
vn 0.000000 0.000000 -0.100000
vn 0.000000 0.000000 -0.100000
vn 0.000000 0.000000 -0.100000
vn 0.000000 0.000000 -0.100000
vn 0.000000 0.000000 -0.100000
vn 0.000000 0.000000 -0.100000
vn 0.000000 0.000000 -0.100000
vn 0.000000 0.000000 -0.100000
vn 0.000000 0.000000 -0.100000
vn 0.000000 0.000000 -0.100000
vn 0.000000 0.000000 -0.100000
vn 0.000000 0.000000 -0.100000
vn 0.000000 0.000000 -0.100000
usemtl Steel_-_Satin
f 1/1/1 2/2/2 4/3/3
f 4/3/3 2/2/2 3/4/4
f 2/5/5 5/6/6 3/7/7
f 3/7/7 5/6/6 6/8/8
f 5/9/9 7/10/10 6/11/11
f 6/11/11 7/10/10 8/12/12
f 7/13/13 9/14/14 8/15/15
f 8/15/15 9/14/14 10/16/16
f 9/17/17 11/18/18 10/19/19
f 10/19/19 11/18/18 12/20/20
f 11/21/21 13/22/22 12/23/23
f 12/23/23 13/22/22 14/24/24
f 13/25/25 15/26/26 14/27/27
f 14/27/27 15/26/26 16/28/28
f 15/29/29 17/30/30 16/31/31
f 16/31/31 17/30/30 18/32/32
f 17/33/33 19/34/34 18/35/35
f 18/35/35 19/34/34 20/36/36
f 19/37/37 21/38/38 20/39/39
f 20/39/39 21/38/38 22/40/40
f 21/41/41 23/42/42 22/43/43
f 22/43/43 23/42/42 24/44/44
f 23/45/45 25/46/46 24/47/47
f 24/47/47 25/46/46 26/48/48
f 25/49/49 27/50/50 26/51/51
f 26/51/51 27/50/50 28/52/52
f 27/53/53 29/54/54 28/55/55
f 28/55/55 29/54/54 30/56/56
f 29/57/57 31/58/58 30/59/59
f 30/59/59 31/58/58 32/60/60
f 31/61/61 33/62/62 32/63/63
f 32/63/63 33/62/62 34/64/64
f 33/65/65 35/66/66 34/67/67
f 34/67/67 35/66/66 36/68/68
f 35/69/69 37/70/70 36/71/71
f 36/71/71 37/70/70 38/72/72
f 37/73/73 39/74/74 38/75/75
f 38/75/75 39/74/74 40/76/76
f 39/77/77 1/78/78 40/79/79
f 40/79/79 1/78/78 4/80/80
f 41/81/81 42/82/82 44/83/83
f 44/83/83 42/82/82 43/84/84
f 45/85/85 41/86/86 46/87/87
f 46/87/87 41/86/86 44/88/88
f 47/89/89 45/90/90 48/91/91
f 48/91/91 45/90/90 46/92/92
f 42/93/93 47/94/94 43/95/95
f 43/95/95 47/94/94 48/96/96
f 1/97/97 44/98/98 2/99/99
f 2/99/99 44/98/98 43/100/100
f 2/99/99 43/100/100 7/101/101
f 7/101/101 43/100/100 9/102/102
f 9/102/102 43/100/100 48/103/103
f 9/102/102 48/103/103 15/104/104
f 15/104/104 48/103/103 17/105/105
f 17/105/105 48/103/103 21/106/106
f 17/105/105 21/106/106 19/107/107
f 39/108/108 37/109/109 1/97/97
f 1/97/97 37/109/109 44/98/98
f 37/109/109 35/110/110 44/98/98
f 44/98/98 35/110/110 46/111/111
f 46/111/111 35/110/110 29/112/112
f 46/111/111 29/112/112 27/113/113
f 35/110/110 33/114/114 29/112/112
f 29/112/112 33/114/114 31/115/115
f 25/116/116 23/117/117 27/113/113
f 27/113/113 23/117/117 46/111/111
f 23/117/117 21/106/106 46/111/111
f 46/111/111 21/106/106 48/103/103
f 15/104/104 13/118/118 9/102/102
f 9/102/102 13/118/118 11/119/119
f 7/101/101 5/120/120 2/99/99
f 3/121/121 41/122/122 4/123/123
f 4/123/123 41/122/122 38/124/124
f 4/123/123 38/124/124 40/125/125
f 6/126/126 8/127/127 3/121/121
f 3/121/121 8/127/127 42/128/128
f 3/121/121 42/128/128 41/122/122
f 8/127/127 10/129/129 42/128/128
f 42/128/128 10/129/129 47/130/130
f 47/130/130 10/129/129 16/131/131
f 47/130/130 16/131/131 18/132/132
f 10/129/129 12/133/133 16/131/131
f 16/131/131 12/133/133 14/134/134
f 20/135/135 22/136/136 18/132/132
f 18/132/132 22/136/136 47/130/130
f 47/130/130 22/136/136 45/137/137
f 45/137/137 22/136/136 24/138/138
f 45/137/137 24/138/138 28/139/139
f 28/139/139 24/138/138 26/140/140
f 28/139/139 30/141/141 45/137/137
f 45/137/137 30/141/141 36/142/142
f 45/137/137 36/142/142 41/122/122
f 41/122/122 36/142/142 38/124/124
f 30/141/141 32/143/143 36/142/142
f 36/142/142 32/143/143 34/144/144
# 48 vertices
# 144 texture params
# 144 normals
# 96 facets

# 1 groups
